PathFileType	4	(X/Y/Z)	s05c0202.trc
DataRate	CameraRate	NumFrames	NumMarkers	Units	OrigDataRate	OrigDataStartFrame	OrigNumFrames
200	200	4	49	mm	200	1250	2000
Frame#	Time	racr			lacr			c7			jug			rlel			rdr			llel			ldr			s2			lic			ric			lasi			rasi			rpsi			lpsi			rgt			lgt			rth1			rth2			rth3			rth4			rlfc			rsh1			rsh2			rsh3			rsh4			rlmal			rmmal			rcal			rtoe			rmt5			lth1			lth2			lth4			lth3			llfc			lmfc			lsh1			lsh2			lsh3			lsh4			llmal			lmmal			lcal			ltoe			lmt5			SBIKE			LBIKE			RBIKE			
		X1	Y1	Z1	X2	Y2	Z2	X3	Y3	Z3	X4	Y4	Z4	X5	Y5	Z5	X6	Y6	Z6	X7	Y7	Z7	X8	Y8	Z8	X9	Y9	Z9	X10	Y10	Z10	X11	Y11	Z11	X12	Y12	Z12	X13	Y13	Z13	X14	Y14	Z14	X15	Y15	Z15	X16	Y16	Z16	X17	Y17	Z17	X18	Y18	Z18	X19	Y19	Z19	X20	Y20	Z20	X21	Y21	Z21	X22	Y22	Z22	X23	Y23	Z23	X24	Y24	Z24	X25	Y25	Z25	X26	Y26	Z26	X27	Y27	Z27	X28	Y28	Z28	X29	Y29	Z29	X30	Y30	Z30	X31	Y31	Z31	X32	Y32	Z32	X33	Y33	Z33	X34	Y34	Z34	X35	Y35	Z35	X36	Y36	Z36	X37	Y37	Z37	X38	Y38	Z38	X39	Y39	Z39	X40	Y40	Z40	X41	Y41	Z41	X42	Y42	Z42	X43	Y43	Z43	X44	Y44	Z44	X45	Y45	Z45	X46	Y46	Z46	X47	Y47	Z47	X48	Y48	Z48	X49	Y49	Z49	
1250	6.2500	506.171095	1257.276612	-199.941562	498.091366	1210.960011	-445.570449	479.053045	1320.429099	-339.342966	415.537372	1173.137898	-304.876452	503.962029	1099.635837	35.292124	663.089070	961.541124	-72.398538	479.041459	1025.019313	-670.460923	647.741777	965.801078	-484.521850	-101.349547	1195.444962	-256.672931	22.340269	1200.416817	-409.937691	61.596937	1204.236045	-127.492823	67.551658	1149.036421	-373.683936	91.615327	1137.821755	-159.812355	-58.070179	1241.070133	-217.994816	-66.933912	1245.686340	-302.083003	-4.065489	1065.756550	-101.763185	-24.310951	1123.244109	-437.152492	68.183193	963.440040	-91.478665	129.959902	899.093710	-93.184805	149.680083	813.118329	-97.672853	160.205465	916.298055	-106.456148	220.112599	680.559861	-117.044309	152.863433	595.055432	-89.315151	138.791086	508.071572	-100.938975	87.348653	439.825251	-103.313866	167.189027	498.800232	-125.150592	42.190361	311.473153	-109.395838	65.252802	333.082493	-189.841654	-30.937048	308.922104	-158.424223	221.720628	152.722584	-156.108381	121.694913	179.476322	-91.317916	94.973126	1057.845839	-450.400285	181.306952	1056.321771	-444.455088	190.941412	1087.544191	-424.205533	257.398084	1007.001787	-442.247937	388.068634	935.865681	-412.959720	375.098668	915.035176	-302.081369	312.509492	837.123760	-433.603174	289.618207	752.850011	-430.491526	226.008850	690.872354	-431.809447	319.113623	736.662440	-412.082009	171.405615	574.263434	-430.018209	204.828197	595.911804	-354.499229	105.495254	536.684717	-389.474286	393.937973	485.319618	-406.984102	282.053857	470.679200	-466.301624	-220.370273	910.246613	-275.191010	-53.550371	79.273707	-475.029641	-53.533537	79.243672	-77.402308	
1251	6.2550	506.545594	1256.913445	-200.655854	498.891816	1212.440626	-446.876802	478.838675	1320.906581	-339.704409	416.695940	1172.756363	-306.447679	503.369863	1098.859885	34.840191	663.435132	961.455277	-71.152265	477.843188	1025.128267	-670.455427	646.954099	965.733536	-484.856882	-102.336215	1195.334644	-258.196514	22.085329	1200.628881	-410.341719	61.193239	1203.724615	-127.677563	67.105711	1148.411016	-374.331375	91.615151	1137.361198	-159.682374	-58.239412	1240.457010	-217.565679	-67.248229	1245.451002	-301.933298	-2.948911	1065.594454	-101.851298	-25.412792	1122.320779	-436.814676	72.652442	965.255007	-92.408304	136.090917	902.727446	-95.047471	158.209525	817.255770	-98.605313	165.520740	920.514423	-109.191827	228.842296	685.182462	-117.486832	159.563762	601.067886	-89.800574	142.980013	514.617404	-101.221869	89.611771	447.775842	-103.187568	170.920783	504.447976	-125.603351	40.253381	320.945882	-109.211540	63.964523	341.739084	-189.662836	-32.892294	321.269208	-158.154346	213.190273	154.829896	-156.099909	114.374458	185.591846	-91.312973	93.891642	1055.075538	-451.235873	180.175569	1052.044571	-445.375102	190.474574	1083.123218	-425.331569	255.416578	1001.472107	-443.379195	384.569126	927.903726	-414.236580	371.534915	906.963635	-303.717393	310.218371	827.194673	-435.075806	289.120962	742.429846	-431.393445	226.884390	679.169178	-432.403330	318.942283	727.056379	-412.972561	174.984408	562.053629	-430.064948	208.126644	584.926139	-354.465138	110.478425	522.078514	-388.770794	400.790581	482.460186	-408.980950	288.983432	463.032056	-467.175306	-220.390236	910.194763	-275.441339	-53.558495	79.182490	-475.070535	-53.515420	79.230089	-77.444007	
1252	6.2600	506.948767	1256.610825	-201.042981	498.417808	1213.828682	-447.759392	478.583909	1321.430415	-339.910103	416.852805	1172.944176	-307.403518	502.591793	1098.060636	34.369884	663.603970	961.274982	-70.007302	476.618825	1025.376771	-670.378694	646.201197	965.695351	-485.152406	-100.510681	1193.149528	-246.991464	21.617427	1200.240536	-410.414358	60.821286	1202.909340	-127.764099	66.651250	1147.443551	-374.791994	91.509633	1136.814648	-159.636169	-58.408146	1239.526867	-217.414424	-67.649333	1244.854007	-301.760678	-1.681158	1065.292206	-101.871317	-26.612765	1120.942556	-436.531288	77.087304	967.335881	-93.399207	142.066011	906.496312	-96.667437	166.408669	821.532555	-99.304851	170.764032	924.883291	-111.434036	237.515725	690.007551	-117.976183	166.438228	607.183728	-90.301327	147.400448	521.223798	-101.404450	92.212701	455.821443	-102.993673	174.831915	510.319541	-126.028397	38.915070	330.529688	-108.834452	62.994969	350.830229	-189.363911	-34.355846	333.739397	-157.732729	204.802431	157.485227	-156.251354	107.384512	192.186124	-91.346881	92.654324	1051.757380	-451.952889	178.863709	1047.289763	-446.290785	189.739380	1078.422793	-426.569354	253.322212	995.449030	-444.717646	381.411649	919.812009	-415.290651	368.010576	898.941621	-305.504831	307.908972	816.894466	-436.431695	288.972789	731.641756	-432.112344	228.223016	667.041767	-433.000457	319.092365	717.090648	-413.505520	178.890190	549.840189	-429.728039	212.200919	573.660986	-354.114661	115.522875	507.866234	-387.784598	407.311996	478.350318	-411.087440	295.630044	454.814957	-467.987827	-220.372998	910.184435	-275.635692	-53.572207	79.132531	-475.112125	-53.523373	79.218099	-77.489627	
1253	6.2650	507.149964	1256.391375	-201.357552	497.875722	1215.439414	-448.670099	478.332677	1321.982788	-340.008769	416.843551	1173.176470	-308.533869	501.434170	1097.378646	33.925214	663.535782	960.980300	-69.160183	475.362823	1025.702746	-670.206336	645.461154	965.713095	-485.475875	-100.703138	1192.521795	-248.928022	21.370286	1199.638375	-410.770148	60.611023	1201.949701	-128.164125	66.321281	1146.375130	-375.352034	91.557044	1136.061553	-159.540581	-58.058461	1237.988033	-218.000444	-67.994339	1243.863976	-301.724329	-0.198312	1064.770990	-101.819761	-27.796827	1119.173120	-436.275713	81.253751	969.568841	-94.475472	147.645402	910.235499	-98.353224	174.077331	826.103835	-99.825916	175.746521	929.281495	-113.242073	246.145566	694.843752	-118.415669	173.355385	613.366363	-90.716128	151.917418	527.889415	-101.570623	94.999985	463.973380	-102.835886	178.886979	516.241554	-126.366590	37.916788	340.322833	-108.433645	62.434756	359.935534	-189.154161	-35.296338	346.355079	-157.225650	196.797026	160.761389	-156.347332	100.849297	199.158686	-91.358279	91.261123	1048.060789	-452.651378	177.424657	1042.182423	-447.384234	189.096012	1073.375813	-428.034847	251.102611	989.254540	-446.048365	377.733682	910.958068	-417.327268	364.655576	890.932774	-307.234079	305.623704	806.295943	-437.825199	289.055678	720.689337	-432.699233	230.024142	654.366311	-433.132599	319.500823	707.039628	-413.891623	183.302521	537.936824	-429.340134	216.408299	562.035870	-353.881232	121.197947	493.922062	-387.280625	413.794624	473.437115	-411.282786	302.730914	446.487923	-468.211458	-220.334031	910.170453	-275.745074	-53.578698	79.089474	-475.141649	-53.529989	79.252253	-77.486765	
